<?xml version="1.0" encoding="UTF-8" standalone="no"?>
<!-- Created with Inkscape (http://www.inkscape.org/) -->

<svg
   xmlns:dc="http://purl.org/dc/elements/1.1/"
   xmlns:cc="http://creativecommons.org/ns#"
   xmlns:rdf="http://www.w3.org/1999/02/22-rdf-syntax-ns#"
   xmlns:svg="http://www.w3.org/2000/svg"
   xmlns="http://www.w3.org/2000/svg"
   xmlns:sodipodi="http://sodipodi.sourceforge.net/DTD/sodipodi-0.dtd"
   xmlns:inkscape="http://www.inkscape.org/namespaces/inkscape"
   width="26.458332mm"
   height="26.458332mm"
   viewBox="0 0 26.458332 26.458332"
   version="1.1"
   id="svg8"
   inkscape:version="0.92.4 (5da689c313, 2019-01-14)"
   sodipodi:docname="dibujo-1.svg">
  <defs
     id="defs2" />
  <sodipodi:namedview
     id="base"
     pagecolor="#ffffff"
     bordercolor="#666666"
     borderopacity="1.0"
     inkscape:pageopacity="0.0"
     inkscape:pageshadow="2"
     inkscape:zoom="0.7"
     inkscape:cx="-93.748688"
     inkscape:cy="-192.54196"
     inkscape:document-units="mm"
     inkscape:current-layer="layer1-3"
     showgrid="false"
     inkscape:window-width="1920"
     inkscape:window-height="1017"
     inkscape:window-x="1912"
     inkscape:window-y="-8"
     inkscape:window-maximized="1"
     fit-margin-top="0"
     fit-margin-left="0"
     fit-margin-right="0"
     fit-margin-bottom="0" />
  <metadata
     id="metadata5">
    <rdf:RDF>
      <cc:Work
         rdf:about="">
        <dc:format>image/svg+xml</dc:format>
        <dc:type
           rdf:resource="http://purl.org/dc/dcmitype/StillImage" />
        <dc:title></dc:title>
      </cc:Work>
    </rdf:RDF>
  </metadata>
  <g
     inkscape:label="Capa 1"
     inkscape:groupmode="layer"
     id="layer1"
     transform="translate(-59.200875,-154.67966)">
    <g
       transform="translate(-4.41424,63.755249)"
       id="layer1-3"
       inkscape:label="Layer 1">
      <g
         id="g101"
         transform="matrix(0.26458333,0,0,0.26458333,63.615115,90.924408)">
        <rect
           id="rect27"
           rx="20"
           height="100"
           width="100"
           y="0"
           x="0"
           style="fill:#f3f4f6" />
        <circle
           id="circle29"
           r="35"
           cy="50"
           cx="50"
           style="fill:none;stroke:#2563eb;stroke-width:3" />
        <line
           id="line31"
           y2="50"
           x2="30"
           y1="50"
           x1="15"
           style="stroke:#2563eb;stroke-width:3" />
        <line
           id="line33"
           y2="50"
           x2="85"
           y1="50"
           x1="70"
           style="stroke:#2563eb;stroke-width:3" />
        <line
           id="line35"
           y2="30"
           x2="50"
           y1="15"
           x1="50"
           style="stroke:#2563eb;stroke-width:3" />
        <line
           id="line37"
           y2="85"
           x2="50"
           y1="70"
           x1="50"
           style="stroke:#2563eb;stroke-width:3" />
      </g>
      <path
         id="path1136"
         d="m 74.792849,101.47567 c 0.144289,0.11645 0.180624,0.17025 0.05499,0.294 -0.056,-0.05 -0.10426,-0.11192 -0.181509,-0.11657 l 0.159981,0.14334 c -0.08189,0.0659 -0.137382,0.21325 -0.258839,0.10037 l 0.03216,0.13183 -0.104391,0.11862 -0.07335,-0.0296 0.042,0.0484 -0.157863,0.19627 -0.08317,-0.0375 0.07866,0.0633 -0.152505,0.22998 -0.140321,-0.12753 c -0.03369,0.0703 0.08487,0.0927 0.09611,0.15565 0.01055,0.059 -0.07856,0.15447 -0.10832,0.20184 l -0.129685,-0.0602 c 0.155594,0.13182 0.01007,0.29137 -0.05264,0.42783 l -0.134981,-0.0939 0.08765,0.12966 -0.0206,0.12996 -0.05074,0.0679 -0.160367,-0.0467 0.154648,0.10971 -0.0072,0.009 -0.0439,-0.006 0.03927,0.0316 -0.05394,0.14763 -0.0707,-0.0128 c 0.05123,0.0581 0.05152,0.10035 0.01673,0.16039 0.01804,0.0845 -9.59e-4,0.16415 -0.03084,0.23967 l -0.134211,-0.0345 -0.01171,0.0347 c 0.04648,0.0298 0.21847,0.11983 0.106418,0.18553 -0.03162,0.0186 -0.06772,-0.0127 -0.101363,0.01 0.121244,0.0899 0.11856,0.19918 -0.0013,0.26339 0.08292,0.0464 0.10043,0.0824 0.104427,0.17216 l -0.136072,0.008 c 0.167729,0.0716 0.178954,0.14817 0.02471,0.21088 0.06732,0.0229 0.21103,0.0657 0.125956,0.14539 l 0.08052,0.0207 -0.125462,0.0754 c 0.103543,0.0109 0.141056,0.0287 0.191343,0.12449 l -0.105822,0.0912 0.145892,-2e-4 -0.07258,0.0298 0.107341,0.0276 -0.1031,0.10808 0.155726,0.008 0.0027,0.0168 -0.06542,0.0209 0.112688,0.0612 -0.08875,0.0902 0.01971,0.0159 0.08694,-0.0476 c 0.04173,0.0411 0.08335,0.079 0.05527,0.13262 l -0.0072,0.009 -0.02788,0.0951 0.0098,0.008 c 0.01958,-0.01 0.0387,-0.0192 0.06086,-0.0244 0.162653,-0.0381 0.06339,0.11508 0.101795,0.18461 l 0.0556,-0.0288 -0.0367,-0.0148 c 0.04101,-0.0144 0.07132,-0.0249 0.09749,0.0197 l 0.05633,0.0306 -0.07629,0.11496 0.132636,-0.0843 0.07866,0.0633 -0.06639,0.12292 c 0.06827,-0.052 0.134953,-0.0591 0.213924,-0.004 l -0.02523,0.11194 c 0.05688,-0.0691 0.102075,-0.0816 0.191609,-0.0369 l -0.0494,0.12189 0.0098,0.008 c 0.05512,-0.0669 0.204988,-0.12977 0.175386,0.0235 l 0.0843,-0.0644 0.117175,0.0355 -0.01541,0.11985 0.0098,0.008 c 0.065,-0.0497 0.224104,-0.11732 0.306599,-0.0419 0.02993,0.0274 0.03998,0.0787 0.05667,0.11371 0.02205,-0.0849 0.04834,-0.12264 0.144344,-0.11899 -0.04434,0.16729 -0.158062,0.20929 -0.245786,0.34596 l 0.05515,0.2002 0.155293,0.26292 0.154914,-0.0517 0.0098,0.008 -0.05204,0.10507 0.0098,0.008 0.216331,-0.36965 0.01972,0.0159 -0.04865,0.18127 0.0098,0.008 c 0.0512,-0.0935 0.07222,-0.19335 0.176752,-0.23986 l 0.0098,0.008 0.02204,0.19404 c 0.02586,-0.0974 0.01644,-0.19322 0.106053,-0.25264 l 0.0098,0.008 -0.04333,0.21493 0.156288,-0.31509 0.04171,0.20987 0.0327,-0.28226 0.129403,0.22163 -0.01566,-0.26238 0.04276,0.10789 -0.0037,-0.45846 0.21338,0.31855 0.01887,-0.0436 -0.166072,-0.23643 0.02153,-0.0268 0.137651,0.11071 0.0072,-0.009 -0.194778,-0.20075 c 0.04846,-0.0256 0.161758,-0.0813 0.141366,0.0256 l 0.0098,0.008 0.08158,-0.0813 0.04277,0.10788 -0.04201,-0.0485 -0.0072,0.009 c 0.06872,0.12634 0.01362,0.20201 -0.02739,0.31593 l 0.0098,0.008 0.07176,-0.0892 c 0.03855,0.13659 -0.06066,0.22429 -0.09835,0.34186 -0.05656,0.17642 0.0354,0.39514 0.199804,0.51848 0.03638,-0.0979 0.061,-0.0103 0.07597,0.0464 l 0.07357,-0.13183 0.0054,0.0337 0.0098,0.008 0.08694,-0.0476 0.01887,-0.0436 c -0.08744,-0.0887 -0.171476,-0.18191 -0.0595,-0.26825 l 0.09697,0.34247 c 0.01636,-0.15374 -0.06677,-0.34623 0.0375,-0.46941 l 0.0035,0.0763 0.0098,0.008 0.01541,-0.11984 0.04968,0.26034 0.03113,-0.40106 0.02764,0.0663 0.02818,-0.2565 0.141085,0.18697 -0.12568,-0.30679 0.107091,0.18898 -0.072,-0.293 0.170584,0.21069 0.06375,-0.13973 c -0.0077,0.12014 -0.05654,0.21357 0.0263,0.3297 l -0.0064,0.0684 0.02869,-0.0357 c 0.05743,0.13042 0.09918,0.24257 0.216027,0.33538 l 0.0072,-0.009 -0.01407,-0.14356 c 0.07688,0.0661 0.284978,0.15706 0.194256,-0.0201 l 0.0072,-0.009 0.03935,0.0316 c -0.03993,-0.17107 -0.201423,-0.24044 -0.127268,-0.42561 l 0.0768,0.10585 0.04601,-0.19809 c 0.02741,0.0909 -0.009,0.15626 -0.03084,0.23966 l 0.0098,0.008 0.05921,-0.11399 0.06855,0.21675 0.03589,-0.0446 c 0.01558,0.0709 0.176054,0.39219 0.24547,0.21185 0.0406,-0.10553 -0.06415,-0.22155 0.01339,-0.31223 l -0.05951,-0.26827 0.03935,0.0316 -0.0096,-0.16931 -0.01301,-0.24556 0.09566,0.0623 0.0072,-0.009 c -0.06855,-0.0552 -0.128003,-0.10629 -0.09008,-0.18999 l -0.07335,-0.0296 0.196916,-0.003 c -0.296619,-0.1097 -0.273865,-0.37741 -0.397245,-0.61337 0.252968,-0.0261 0.491071,0.23567 0.68838,0.39234 0.05879,0.0467 0.146061,0.15225 0.222744,0.16147 0.110315,0.0133 -0.05473,-0.22042 -0.07498,-0.24452 -0.04236,-0.0504 -0.08071,-0.10221 -0.116749,-0.15683 l 0.0072,-0.009 0.318358,0.16789 0.102045,-0.006 0.0072,-0.009 -0.06217,-0.28509 0.270762,0.24719 -0.06324,-0.1831 0.0946,0.16424 0.01805,-0.10302 0.103625,0.11276 0.0091,-0.0515 0.184141,0.13344 0.178044,0.0404 c 0.03618,-0.0898 -0.01759,-0.1483 -0.08555,-0.21574 l 0.05106,-0.003 0.0072,-0.009 -0.241276,-0.22348 0.106572,-0.0318 -0.241559,-0.062 0.102045,-0.006 -0.210202,-0.0809 0.103932,-0.0487 -0.0098,-0.008 -0.189738,-0.006 0.183617,-0.0874 -0.0098,-0.008 c -0.147017,0.0401 -0.257872,0.0416 -0.398412,-0.0482 -0.118528,-0.0757 -0.271404,-0.23757 -0.417414,-0.22593 l -0.211011,-0.14031 0.07629,-0.11495 0.04462,0.0653 c 0.186446,-0.0179 0.305489,0.066 0.418538,0.2044 l 0.0072,-0.009 -0.07226,-0.1316 0.302413,0.0669 0.0072,-0.009 -0.02953,-0.0238 c 0.076,-0.003 0.132039,0.0112 0.197718,0.0562 l -0.01517,-0.0416 0.15839,0.0245 0.0072,-0.009 -0.08317,-0.0375 0.09749,0.0197 0.0072,-0.009 -0.03935,-0.0316 0.195053,0.0393 0.0072,-0.009 -0.105479,-0.0702 c 0.114026,-0.0226 0.237371,0.0711 0.342237,0.0355 0.10157,-0.0345 0.140615,-0.17004 0.03431,-0.24228 -0.07326,-0.0498 -0.171034,-0.0471 -0.237275,-0.1073 l -0.04651,-0.0227 -0.02869,0.0357 -0.255911,-0.0442 -0.138722,-0.009 0.06005,-0.0546 -0.08133,-0.0801 0.0439,0.006 0.0072,-0.009 -0.08317,-0.0375 c 0.1121,-0.0403 0.230534,0.0174 0.343607,0.056 l 0.0072,-0.009 -0.115321,-0.0781 0.270264,0.0264 0.0072,-0.009 -0.102854,-0.0533 c 0.11121,-0.0561 0.21123,-0.0115 0.332982,-0.0114 -0.05866,-0.0228 -0.236819,-0.11279 -0.08679,-0.15017 0.11089,-0.0276 0.243578,-0.006 0.359211,-0.0275 l -0.202233,-0.0304 c 0.05293,-0.0117 0.12161,-0.004 0.167733,-0.031 0.196174,-0.11642 -0.201522,-0.25198 -0.283583,-0.26788 l 0.01887,-0.0436 -0.104693,-0.0107 c -0.187725,0.0462 -0.300946,0.12716 -0.509442,0.0898 l 0.02608,-0.0525 -0.0098,-0.008 c -0.08272,0.11083 -0.238969,0.0352 -0.367002,0.0134 l 0.05393,-0.14763 0.144807,0.1018 0.01436,-0.0179 c -0.02382,-0.0192 -0.211679,-0.20955 -0.07742,-0.17309 0.09488,0.0258 0.151801,0.11953 0.259204,0.12829 l -0.179649,-0.15916 0.05822,-0.0119 -0.09033,-0.0286 0.353436,0.0639 0.0072,-0.009 -0.159179,-0.084 0.0072,-0.009 0.195053,0.0393 -0.163704,-0.0582 c 0.10064,-0.0302 0.195919,-0.0175 0.301624,0.008 l 0.0072,-0.009 -0.04651,-0.0228 0.159446,-0.0774 -0.0098,-0.008 c -0.08719,0.0302 -0.166111,0.0529 -0.262288,0.0241 l 0.237312,-0.0736 -0.138716,-0.009 0.266813,-0.0499 -0.185226,-0.0314 0.178337,-0.12105 -0.04012,-0.091 0.315178,-0.0697 c 0.09901,-0.14096 0.05331,-0.18387 -0.06748,-0.31875 l -0.01171,0.0347 -0.336433,-0.0649 0.01171,-0.0347 -0.0098,-0.008 -0.09487,-0.003 -0.146989,0.10218 -0.0072,0.009 -0.296585,0.18756 -0.02736,-0.22771 -0.06458,0.0803 c 0.0014,-0.0822 0.03555,-0.1109 0.09517,-0.15854 l -0.126215,0.016 -0.0098,-0.008 0.01995,-0.14558 -0.04124,0.0109 c -0.01216,-0.0596 6.38e-4,-0.0885 0.03958,-0.12979 l -0.07524,0.013 c -0.02752,-0.0684 -0.02425,-0.10769 0.02712,-0.1545 l -0.09223,0.014 c -0.02981,-0.0738 -0.0099,-0.10882 0.04412,-0.15553 l -0.116397,0.0239 -0.06429,-0.0811 0.08158,-0.0813 -0.06542,0.0209 -0.03746,-0.0742 -0.0037,0.0852 -0.08395,-0.0969 0.0843,-0.0644 -0.116391,0.0239 c -0.04252,-0.0705 -0.04761,-0.11539 0.0074,-0.17033 l -0.209398,-0.0215 0.08157,-0.0813 -0.03219,-0.0406 c -0.102644,0.0782 -0.188658,0.008 -0.09116,-0.088 l -0.0098,-0.008 c -0.120445,0.0422 -0.176832,0.0704 -0.210209,-0.0809 l -0.04124,0.0109 -0.0072,0.009 -0.009,0.0515 c -0.0915,-0.0467 -0.103199,-0.10044 -0.141077,-0.18697 l -0.06194,0.0971 -0.0042,-0.13564 -0.03408,0.002 -0.0098,-0.008 -0.01517,-0.0416 -0.0072,0.009 c -0.02169,0.16898 -0.159327,0.0435 -0.204894,-0.0472 l -0.04571,0.0367 c -0.01672,0.10249 -0.116108,-0.0727 -0.144815,-0.1018 l -0.0082,0.11092 -0.0072,0.009 c -0.08983,-0.0262 -0.111673,-0.0804 -0.145616,-0.16121 l -0.01805,0.10302 -0.04462,-0.0653 -0.0072,0.009 0.02309,0.0921 -0.04276,-0.10789 -0.0098,-0.008 -0.02069,0.0862 -0.06164,-0.0643 c -0.06214,0.12114 -0.146693,0.0241 -0.229066,-0.0373 l -0.0072,0.009 0.05713,0.09 c -0.09682,0.0154 -0.139869,-0.0391 -0.205672,-0.10669 l 0.03561,0.1168 -0.08583,-0.0544 -0.01887,0.0436 -0.02237,-0.0327 -0.01618,0.0605 -0.05444,-0.0732 c -0.0027,0.12619 -0.08631,0.10252 -0.167418,0.027 -0.0098,0.0444 1.65e-4,0.063 0.04012,0.091 -0.129052,0.052 -0.193966,0.0179 -0.280894,-0.0937 -0.02719,0.0613 0.0032,0.0916 0.06243,0.12371 l -0.0385,0.0278 0.05372,0.0138 -0.157589,0.0349 0.0574,-0.0714 -0.0098,-0.008 -0.05476,0.0882 -0.124087,-0.18797 c -0.0023,0.0832 0.117179,0.20835 0.0032,0.23764 l -0.06458,0.0803 c -0.05348,-0.043 -0.148544,-0.13489 -0.212872,-0.0977 l 0.16185,0.10076 -0.156807,0.0943 -0.03935,-0.0316 -0.0072,0.009 0.03219,0.0405 -0.2219,-0.0462 0.117983,0.0949 -0.248199,0.1677 c -0.05785,-0.0449 -0.113088,-0.0884 -0.186004,-0.0909 l 0.13498,0.0939 c -0.08946,0.11601 -0.1793,0.17936 -0.308004,0.0608 l 0.0821,0.13951 -0.145095,0.0596 0.008,0.0505 -0.156502,-0.0671 -0.01437,0.0179 0.09116,0.088 -0.114811,0.14275 -0.199316,-0.17498 -0.02153,0.0268 m -1.279174,2.17424 0.02953,0.0237 0.0072,-0.009 -0.0367,-0.0148 m 2.349939,-2.84111 0.04651,0.0228 0.0072,-0.009 -0.03935,-0.0316 -0.01436,0.0179 m 0.642329,-0.33556 0.02953,0.0237 0.0072,-0.009 -0.0367,-0.0148 m 0.309869,-0.10341 0.08317,0.0375 0.0072,-0.009 -0.09033,-0.0286 m 0.366995,-0.0134 0.01972,0.0159 -0.0054,-0.0337 -0.01436,0.0179 m 0.184435,-0.028 0.06429,0.0811 -0.06429,-0.0811 m 0.138716,0.009 0.01255,0.0248 0.01436,-0.0179 -0.02688,-0.007 m -0.0018,0.0426 0.01698,-0.001 -0.01698,0.001 m 0.681629,0.23968 0.01066,0.0673 -0.01066,-0.0673 m 0.423063,0.17865 0.01698,-0.001 -0.01698,0.001 m 0.223469,0.16507 0.02237,0.0327 0.0072,-0.009 -0.02953,-0.0237 m -4.367431,5.5039 0.0087,0.002 -0.0087,-0.002 m 4.5997,-5.22892 0.01698,-0.001 -0.01698,0.001 m -3.948275,5.33166 -0.06994,0.0466 c 0.002,-0.0467 0.023,-0.0602 0.06994,-0.0466 m 0.516349,0.0627 -0.105826,0.0912 c 0.01639,-0.0612 0.03744,-0.0906 0.105826,-0.0912 m 0.02237,0.0327 0.0027,0.0168 -0.0027,-0.0168 m 3.801003,-4.52446 0.0098,0.008 -0.04676,0.13872 0.03694,-0.14661 m -3.926036,5.23691 0.0038,0.008 -0.0038,-0.008 m -0.10213,0.13336 0.0098,0.008 0.02153,-0.0268 -0.03135,0.0189 m 4.497374,-5.55122 0.01255,0.0248 0.01436,-0.0179 -0.02688,-0.007 m -3.222454,4.32861 0.01971,0.0159 -0.07976,0.0387 0.06005,-0.0545 m -0.352672,0.53915 0.02575,0.10887 -0.02575,-0.10887 m 0.0588,-0.0262 c 0.0056,-0.007 0.0067,0.003 6.73e-4,0.006 l -6.73e-4,-0.006 m -0.408761,0.52832 0.0079,-0.003 -0.0079,0.003 m 0.0079,0.10429 -0.0035,-0.0763 0.0035,0.0763 m 0.380311,-0.47284 0.02237,0.0327 -0.0072,0.009 -0.01517,-0.0416 m -0.37671,0.49533 0.0079,-0.003 -0.0079,0.003 m 0.248376,-0.2753 -0.01013,0.15348 0.0098,0.008 2.7e-4,-0.16141 m 1.064072,-1.28818 0.03508,0.009 -0.03508,-0.009 m 2.0789,-2.61948 0.01698,-0.001 -0.01698,0.001 m -3.400465,4.28827 0.01698,-0.001 -0.01698,0.001 m 3.0308,-3.74809 0.0098,0.008 -0.03589,0.0446 0.02607,-0.0525 m -1.54147,2.19836 -0.05288,0.0456 0.0098,0.008 0.07335,0.0296 -0.01436,0.0179 c -0.04333,-0.0112 -0.09711,-0.0206 -0.129461,-0.0564 -0.07931,-0.0878 0.05291,-0.10089 0.113493,-0.0446 m -1.246432,1.34837 0.01698,-10e-4 -0.01698,10e-4 m 2.972062,-3.41331 -0.0072,0.009 -0.14219,-0.085 c 0.06824,-0.0529 0.117805,0.008 0.149353,0.076 m -1.382776,1.51788 -0.0064,0.0684 -0.03935,-0.0316 0.04571,-0.0367 m 2.235125,-2.69836 0.07524,-0.013 -0.07524,0.013 m -2.702608,3.38026 0.127817,0.10281 0.0072,-0.009 -0.07679,-0.10585 c 0.19929,0.007 0.254161,0.27985 0.185465,0.41365 -0.09804,-0.13659 -0.199701,-0.23939 -0.243659,-0.40169 m 0.51212,-0.61661 0.05606,0.19202 c -0.03421,-0.0621 -0.06948,-0.12418 -0.05606,-0.19202 m 1.358853,-1.66936 c 0.137949,0.0267 0.21442,0.0449 0.322876,0.14214 -0.07701,0.0694 -0.17417,0.01 -0.263089,-0.0353 l 0.0064,-0.0684 -0.04041,0.0703 -0.02576,-0.10887 m -1.506073,1.93298 0.0098,0.008 -0.01352,0.0773 -0.01698,0.001 0.02069,-0.0862 m 0.538183,-0.66912 0.144814,0.10181 c -0.07526,3.9e-4 -0.161775,-0.009 -0.144814,-0.10181 m 0.236796,-0.29441 0.01698,-0.001 0.0348,0.0574 -0.06615,-0.0385 0.01436,-0.0179 m 0.102854,0.0533 c 0.07891,0.0431 0.165328,0.0521 0.218166,0.1314 -0.09298,-0.0157 -0.169774,-0.0343 -0.239689,-0.10464 l 0.02153,-0.0268 m 1.477924,-1.67645 0.01255,0.0248 0.01436,-0.0179 -0.02688,-0.007 m -3.132325,3.975 0.01698,-0.001 -0.0018,0.0426 -0.01517,-0.0416 m 0.612583,-0.74152 0.0098,0.008 0.04041,-0.0703 -0.05023,0.0624 m 0.450255,-0.51944 0.02576,0.10887 -0.02576,-0.10887 m 0.724749,-0.90108 0.158384,0.0246 0.100993,0.0959 c 0.081,0.0104 0.110183,0.0975 0.145616,0.16121 l -0.0072,0.009 c -0.137391,-0.0869 -0.295598,-0.15924 -0.397823,-0.29056 m 0.866453,-1.03689 0.01698,-0.001 -0.01698,0.001 m -2.189148,3.0439 c 0.02131,-0.0748 0.03804,-0.15101 0.0067,-0.22974 l -0.0067,0.22974 m 0.62724,-0.92074 c 0.03731,0.0607 0.04702,0.10477 0.02656,0.16829 l 0.01088,-0.0941 -0.05182,-0.0563 0.01436,-0.0179 m 0.83503,-1.01809 0.01698,-0.001 -0.01698,0.001 m 0.839561,-1.04382 0.0098,0.008 0.03851,-0.0278 -0.04832,0.0199 m 0.289671,-0.34005 0.01971,0.0159 -0.03408,0.002 0.01436,-0.0179 m 0.268679,-0.0924 -0.0072,0.009 -0.124376,-0.0266 c 0.04905,-0.0254 0.08234,-0.0127 0.131546,0.0176 m -2.797473,3.37742 0.0098,0.008 0.03505,-0.10404 -0.04487,0.0961 m -0.06723,0.0635 0.01698,-0.001 -0.01698,0.001 m 2.683727,-3.33668 0.05106,-0.003 -0.05106,0.003 m -2.810246,3.51408 0.0069,0.15248 -0.0069,-0.15248 m 0.124629,-0.13485 0.01517,0.0416 -0.01517,-0.0416 m 0.701409,-0.83169 -0.0018,0.0426 -0.0098,-0.008 0.01171,-0.0347 m 0.889789,-1.10627 0.02237,0.0327 0.0072,-0.009 -0.02953,-0.0237 m -1.587724,2.01422 0.01971,0.0159 -0.0054,-0.0337 -0.01436,0.0179 m 2.4541,-3.05118 0.02418,-0.01 0.0098,0.008 -0.03408,0.002 m 0.08157,-0.0813 0.01247,0.0247 0.01436,-0.0179 -0.0268,-0.007 m -1.864858,2.37905 0.03746,0.0742 0.01012,-0.15348 c 0.02861,0.0991 0.0035,0.18228 -0.02553,0.27332 -0.03405,-0.0694 -0.04943,-0.12557 -0.02205,-0.19405 m 1.018953,-1.26686 0.01782,0.0584 -0.03219,-0.0406 0.01436,-0.0179 m -1.680932,2.13027 0.01698,-0.001 -0.01698,0.001 m -0.0019,0.0426 0.01698,-0.001 -0.01698,0.001 m 1.741891,-2.12533 0.06057,0.16628 c -0.05302,-0.0528 -0.07828,-0.0972 -0.06057,-0.16628 m -1.180525,1.54833 -0.0385,0.0278 0.0385,-0.0278 m 1.246768,-1.50974 0.04091,0.15046 -0.04091,-0.15046 m 0.06088,0.005 c 0.04972,0.0529 0.05662,0.10914 0.05341,0.1752 -0.04751,-0.0561 -0.05645,-0.10725 -0.05341,-0.1752 m -0.76516,0.97143 0.02953,0.0238 0.0072,-0.009 -0.0367,-0.0148 m 0.06615,0.0385 0.01698,-0.001 -0.01698,0.001 m -0.04758,0.0793 0.02953,0.0238 0.0072,-0.009 -0.0367,-0.0148 m 0.949567,-0.99942 0.04201,0.0485 -0.0072,0.009 -0.04917,-0.0396 0.01436,-0.0179 m 0.340696,0.20053 0.01698,-0.001 -0.01698,0.001 m 0.144814,0.10181 0.01698,-0.001 -0.01698,0.001 m 0.05105,-0.003 0.0027,0.0168 0.04124,-0.0109 z"
         style="fill:#800000;stroke:none;stroke-width:0.01201936"
         inkscape:connector-curvature="0" />
    </g>
  </g>
</svg>
